<svg xmlns="http://www.w3.org/2000/svg" viewBox="0 0 1600 1600" font-family="Georgia, serif">
<defs>
<radialGradient id="bg" cx="50%" cy="50%" r="60%"><stop offset="0%" stop-color="#1a1426" stop-opacity="0.6"/><stop offset="100%" stop-color="#06060c" stop-opacity="0"/></radialGradient>
<radialGradient id="sun" cx="50%" cy="50%" r="50%"><stop offset="0%" stop-color="#fff7cc"/><stop offset="40%" stop-color="#ffc14a"/><stop offset="100%" stop-color="#c2701c" stop-opacity="0.0"/></radialGradient>
<radialGradient id="q-alpha" cx="50%" cy="50%" r="80%"><stop offset="20%" stop-color="#ffd97a" stop-opacity="0"/><stop offset="100%" stop-color="#ffd97a" stop-opacity="0.08"/></radialGradient>
<radialGradient id="q-dichotomy" cx="50%" cy="50%" r="80%"><stop offset="20%" stop-color="#9c6ed8" stop-opacity="0"/><stop offset="100%" stop-color="#9c6ed8" stop-opacity="0.08"/></radialGradient>
<radialGradient id="q-trinity" cx="50%" cy="50%" r="80%"><stop offset="20%" stop-color="#5cb78a" stop-opacity="0"/><stop offset="100%" stop-color="#5cb78a" stop-opacity="0.08"/></radialGradient>
<radialGradient id="q-omega" cx="50%" cy="50%" r="80%"><stop offset="20%" stop-color="#d86e6e" stop-opacity="0"/><stop offset="100%" stop-color="#d86e6e" stop-opacity="0.08"/></radialGradient>
</defs>
<rect width="1600" height="1600" fill="#06060c"/>
<rect width="1600" height="1600" fill="url(#bg)"/>
<path d="M 800 800 L 800.0 112.0 A 688 688 0 0 1 1488.0 800.0 Z" fill="url(#q-alpha)"/>
<path d="M 800 800 L 1488.0 800.0 A 688 688 0 0 1 800.0 1488.0 Z" fill="url(#q-omega)"/>
<path d="M 800 800 L 800.0 1488.0 A 688 688 0 0 1 112.0 800.0 Z" fill="url(#q-trinity)"/>
<path d="M 800 800 L 112.0 800.0 A 688 688 0 0 1 800.0 112.0 Z" fill="url(#q-dichotomy)"/>
<line x1="800" y1="800" x2="800.0" y2="112.0" stroke="#5a4a28" stroke-width="1" opacity="0.7"/>
<line x1="800" y1="800" x2="1488.0" y2="800.0" stroke="#5a4a28" stroke-width="1" opacity="0.7"/>
<line x1="800" y1="800" x2="800.0" y2="1488.0" stroke="#5a4a28" stroke-width="1" opacity="0.7"/>
<line x1="800" y1="800" x2="112.0" y2="800.0" stroke="#5a4a28" stroke-width="1" opacity="0.7"/>
<circle cx="800" cy="800" r="130" fill="none" stroke="#5a4a28" stroke-width="1" stroke-dasharray="3,5" opacity="0.65"/>
<text x="810" y="673.0" fill="#7a6a44" font-size="10" font-style="italic">1</text>
<circle cx="800" cy="800" r="218" fill="none" stroke="#5a4a28" stroke-width="1" stroke-dasharray="3,5" opacity="0.65"/>
<text x="810" y="585.0" fill="#7a6a44" font-size="10" font-style="italic">2</text>
<circle cx="800" cy="800" r="306" fill="none" stroke="#5a4a28" stroke-width="1" stroke-dasharray="3,5" opacity="0.65"/>
<text x="810" y="497.0" fill="#7a6a44" font-size="10" font-style="italic">3</text>
<circle cx="800" cy="800" r="394" fill="none" stroke="#5a4a28" stroke-width="1" stroke-dasharray="3,5" opacity="0.65"/>
<text x="810" y="409.0" fill="#7a6a44" font-size="10" font-style="italic">4</text>
<circle cx="800" cy="800" r="482" fill="none" stroke="#5a4a28" stroke-width="1" stroke-dasharray="3,5" opacity="0.65"/>
<text x="810" y="321.0" fill="#7a6a44" font-size="10" font-style="italic">5</text>
<circle cx="800" cy="800" r="570" fill="none" stroke="#5a4a28" stroke-width="1" stroke-dasharray="3,5" opacity="0.65"/>
<text x="810" y="233.0" fill="#7a6a44" font-size="10" font-style="italic">6</text>
<circle cx="800" cy="800" r="658" fill="none" stroke="#5a4a28" stroke-width="1" stroke-dasharray="3,5" opacity="0.65"/>
<text x="810" y="145.0" fill="#7a6a44" font-size="10" font-style="italic">7</text>
<circle cx="800" cy="800" r="80" fill="url(#sun)"/>
<circle cx="800" cy="800" r="40" fill="#fff5b8"/>
<ellipse cx="800" cy="800" rx="18" ry="9" fill="#3a2a08"/>
<circle cx="800" cy="800" r="5" fill="#fff7d8"/>
<line x1="930.0" y1="800.0" x2="670.0" y2="800.0" stroke="#ffe79a" stroke-width="2" opacity="0.45"/>
<line x1="800.0" y1="930.0" x2="800.0" y2="670.0" stroke="#ffe79a" stroke-width="2" opacity="0.45"/>
<line x1="891.9" y1="891.9" x2="708.1" y2="708.1" stroke="#ffe79a" stroke-width="1" opacity="0.45"/>
<line x1="708.1" y1="891.9" x2="891.9" y2="708.1" stroke="#ffe79a" stroke-width="1" opacity="0.45"/>
<text x="800" y="860" text-anchor="middle" fill="#e8c878" font-size="14" font-weight="bold" letter-spacing="3">AENOR</text>
<circle cx="800.0" cy="670.0" r="22" fill="#1a1a22"/>
<circle cx="793.0" cy="663.0" r="6.2" fill="white" opacity="0.18"/>
<text x="800.0" y="634.0" text-anchor="middle" dominant-baseline="auto" fill="#e8d8a8" font-size="12" font-weight="bold">1 · ORIGON ★</text>
<circle cx="930.0" cy="800.0" r="22" fill="#f4ecc8"/>
<circle cx="923.0" cy="793.0" r="6.2" fill="white" opacity="0.18"/>
<text x="966.0" y="800.0" text-anchor="start" dominant-baseline="middle" fill="#e8d8a8" font-size="12" font-weight="bold">2 · LUMERIA</text>
<circle cx="800.0" cy="930.0" r="22" fill="#7a2b3e"/>
<circle cx="793.0" cy="923.0" r="6.2" fill="white" opacity="0.18"/>
<text x="800.0" y="966.0" text-anchor="middle" dominant-baseline="hanging" fill="#e8d8a8" font-size="12" font-weight="bold">3 · DRAEVOS</text>
<circle cx="670.0" cy="800.0" r="22" fill="#2d6b3a"/>
<circle cx="663.0" cy="793.0" r="6.2" fill="white" opacity="0.18"/>
<text x="634.0" y="800.0" text-anchor="end" dominant-baseline="middle" fill="#e8d8a8" font-size="12" font-weight="bold">4 · ARBORYNTH</text>
<circle cx="800.0" cy="582.0" r="22" fill="#15355c"/>
<circle cx="793.0" cy="575.0" r="6.2" fill="white" opacity="0.18"/>
<text x="800.0" y="546.0" text-anchor="middle" dominant-baseline="auto" fill="#e8d8a8" font-size="12" font-weight="bold">5 · THALLASAR</text>
<circle cx="1018.0" cy="800.0" r="22" fill="#c2603a"/>
<circle cx="1011.0" cy="793.0" r="6.2" fill="white" opacity="0.18"/>
<text x="1054.0" y="800.0" text-anchor="start" dominant-baseline="middle" fill="#e8d8a8" font-size="12" font-weight="bold">6 · PYRAUNA</text>
<circle cx="800.0" cy="1018.0" r="22" fill="#5a5a5a"/>
<circle cx="793.0" cy="1011.0" r="6.2" fill="white" opacity="0.18"/>
<text x="800.0" y="1054.0" text-anchor="middle" dominant-baseline="hanging" fill="#e8d8a8" font-size="12" font-weight="bold">7 · QUORAUNA</text>
<circle cx="582.0" cy="800.0" r="22" fill="#0e1a2a"/>
<circle cx="575.0" cy="793.0" r="6.2" fill="white" opacity="0.18"/>
<text x="546.0" y="800.0" text-anchor="end" dominant-baseline="middle" fill="#e8d8a8" font-size="12" font-weight="bold">8 · CYTHERION</text>
<circle cx="800.0" cy="494.0" r="30" fill="#6b3a8f"/>
<circle cx="790.4" cy="484.4" r="8.4" fill="white" opacity="0.18"/>
<ellipse cx="800.0" cy="494.0" rx="60.0" ry="12.6" fill="none" stroke="#c2a878" stroke-width="2.2" opacity="0.85"/>
<ellipse cx="800.0" cy="494.0" rx="75.0" ry="15.0" fill="none" stroke="#a0875c" stroke-width="1.6" opacity="0.6" transform="rotate(20 800.0 494.0)"/>
<text x="800.0" y="450.0" text-anchor="middle" dominant-baseline="auto" fill="#e8d8a8" font-size="12" font-weight="bold">9 · ZYRAXIS ★</text>
<circle cx="1106.0" cy="800.0" r="22" fill="#b89344"/>
<circle cx="1099.0" cy="793.0" r="6.2" fill="white" opacity="0.18"/>
<text x="1142.0" y="800.0" text-anchor="start" dominant-baseline="middle" fill="#e8d8a8" font-size="12" font-weight="bold">10 · MYRACLESE ★</text>
<circle cx="800.0" cy="1106.0" r="22" fill="#7a1f1f"/>
<circle cx="793.0" cy="1099.0" r="6.2" fill="white" opacity="0.18"/>
<text x="800.0" y="1142.0" text-anchor="middle" dominant-baseline="hanging" fill="#e8d8a8" font-size="12" font-weight="bold">11 · BELLATORA</text>
<circle cx="494.0" cy="800.0" r="22" fill="#a8c8d4"/>
<circle cx="487.0" cy="793.0" r="6.2" fill="white" opacity="0.18"/>
<text x="458.0" y="800.0" text-anchor="end" dominant-baseline="middle" fill="#e8d8a8" font-size="12" font-weight="bold">12 · YVORIS</text>
<circle cx="800.0" cy="406.0" r="22" fill="#1c1024"/>
<circle cx="793.0" cy="399.0" r="6.2" fill="white" opacity="0.18"/>
<text x="800.0" y="370.0" text-anchor="middle" dominant-baseline="auto" fill="#e8d8a8" font-size="12" font-weight="bold">13 · KYRATHOS</text>
<circle cx="1194.0" cy="800.0" r="22" fill="#6e6a5e"/>
<circle cx="1187.0" cy="793.0" r="6.2" fill="white" opacity="0.18"/>
<text x="1230.0" y="800.0" text-anchor="start" dominant-baseline="middle" fill="#e8d8a8" font-size="12" font-weight="bold">14 · NEXYROS ★</text>
<circle cx="800.0" cy="1194.0" r="22" fill="#8a3a9c"/>
<circle cx="793.0" cy="1187.0" r="6.2" fill="white" opacity="0.18"/>
<text x="800.0" y="1230.0" text-anchor="middle" dominant-baseline="hanging" fill="#e8d8a8" font-size="12" font-weight="bold">15 · JYNAERA</text>
<circle cx="406.0" cy="800.0" r="22" fill="#1f4a2a"/>
<circle cx="399.0" cy="793.0" r="6.2" fill="white" opacity="0.18"/>
<text x="370.0" y="800.0" text-anchor="end" dominant-baseline="middle" fill="#e8d8a8" font-size="12" font-weight="bold">16 · SYLVANIR</text>
<circle cx="800.0" cy="318.0" r="22" fill="#4e1418"/>
<circle cx="793.0" cy="311.0" r="6.2" fill="white" opacity="0.18"/>
<text x="800.0" y="282.0" text-anchor="middle" dominant-baseline="auto" fill="#e8d8a8" font-size="12" font-weight="bold">17 · VELKRYN</text>
<circle cx="1282.0" cy="800.0" r="22" fill="#d05a1c"/>
<circle cx="1275.0" cy="793.0" r="6.2" fill="white" opacity="0.18"/>
<text x="1318.0" y="800.0" text-anchor="start" dominant-baseline="middle" fill="#e8d8a8" font-size="12" font-weight="bold">18 · IGNARA</text>
<circle cx="800.0" cy="1282.0" r="22" fill="#7a6ba6"/>
<circle cx="793.0" cy="1275.0" r="6.2" fill="white" opacity="0.18"/>
<text x="800.0" y="1318.0" text-anchor="middle" dominant-baseline="hanging" fill="#e8d8a8" font-size="12" font-weight="bold">19 · ULTHARIS</text>
<circle cx="318.0" cy="800.0" r="22" fill="#2a8a96"/>
<circle cx="311.0" cy="793.0" r="6.2" fill="white" opacity="0.18"/>
<text x="282.0" y="800.0" text-anchor="end" dominant-baseline="middle" fill="#e8d8a8" font-size="12" font-weight="bold">20 · HALCYRA</text>
<circle cx="800.0" cy="230.0" r="22" fill="#4a8ac2"/>
<circle cx="793.0" cy="223.0" r="6.2" fill="white" opacity="0.18"/>
<text x="800.0" y="194.0" text-anchor="middle" dominant-baseline="auto" fill="#e8d8a8" font-size="12" font-weight="bold">21 · WYVERA</text>
<circle cx="1370.0" cy="800.0" r="22" fill="#5d7a9c"/>
<circle cx="1363.0" cy="793.0" r="6.2" fill="white" opacity="0.18"/>
<text x="1406.0" y="800.0" text-anchor="start" dominant-baseline="middle" fill="#e8d8a8" font-size="12" font-weight="bold">22 · RHYZOR</text>
<circle cx="800.0" cy="1370.0" r="22" fill="#2f7065"/>
<circle cx="793.0" cy="1363.0" r="6.2" fill="white" opacity="0.18"/>
<text x="800.0" y="1406.0" text-anchor="middle" dominant-baseline="hanging" fill="#e8d8a8" font-size="12" font-weight="bold">23 · ELYTHERA</text>
<circle cx="230.0" cy="800.0" r="22" fill="#cfd9e0"/>
<circle cx="223.0" cy="793.0" r="6.2" fill="white" opacity="0.18"/>
<text x="194.0" y="800.0" text-anchor="end" dominant-baseline="middle" fill="#e8d8a8" font-size="12" font-weight="bold">24 · XYLOS</text>
<circle cx="800.0" cy="142.0" r="22" fill="#231832"/>
<circle cx="793.0" cy="135.0" r="6.2" fill="white" opacity="0.18"/>
<text x="800.0" y="106.0" text-anchor="middle" dominant-baseline="auto" fill="#e8d8a8" font-size="12" font-weight="bold">25 · GRAVARON</text>
<circle cx="1458.0" cy="800.0" r="22" fill="#6a5040"/>
<circle cx="1451.0" cy="793.0" r="6.2" fill="white" opacity="0.18"/>
<text x="1494.0" y="800.0" text-anchor="start" dominant-baseline="middle" fill="#e8d8a8" font-size="12" font-weight="bold">26 · FERRALIS</text>
<circle cx="800.0" cy="1458.0" r="28" fill="#3a8a64"/>
<circle cx="791.0" cy="1449.0" r="7.8" fill="white" opacity="0.18"/>
<circle cx="800.0" cy="1458.0" r="35" fill="none" stroke="#e8c878" stroke-width="1.5" opacity="0.75"/>
<text x="800.0" y="1500.0" text-anchor="middle" dominant-baseline="hanging" fill="#e8d8a8" font-size="12" font-weight="bold">27 · VIRIDIA</text>
<ellipse cx="700" cy="860" rx="720" ry="380" fill="none" stroke="#9c6ed8" stroke-width="1.3" stroke-dasharray="7,9" opacity="0.6" transform="rotate(-18 800 800)"/>
<circle cx="320" cy="1120" r="22" fill="#7e4ea2"/>
<circle cx="313" cy="1113" r="6" fill="white" opacity="0.18"/>
<circle cx="342.0" cy="1120.0" r="4.0" fill="#7e4ea2" opacity="0.55"/>
<circle cx="351.0" cy="1116.0" r="3.5" fill="#7e4ea2" opacity="0.48"/>
<circle cx="360.0" cy="1112.0" r="3.0" fill="#7e4ea2" opacity="0.41"/>
<circle cx="369.0" cy="1108.0" r="2.5" fill="#7e4ea2" opacity="0.34"/>
<circle cx="378.0" cy="1104.0" r="2.0" fill="#7e4ea2" opacity="0.28"/>
<circle cx="387.0" cy="1100.0" r="1.5" fill="#7e4ea2" opacity="0.21"/>
<circle cx="396.0" cy="1096.0" r="1.0" fill="#7e4ea2" opacity="0.14"/>
<circle cx="405.0" cy="1092.0" r="0.5" fill="#7e4ea2" opacity="0.07"/>
<text x="292" y="1160" text-anchor="end" fill="#c79de2" font-size="13" font-style="italic" font-weight="bold">28 · OVAURON · DRIFT WORLD</text>
<text x="1318.3" y="281.7" text-anchor="middle" fill="#ffd97a" font-size="15" font-weight="bold" letter-spacing="3">Q I · ALPHA</text>
<text x="1318.3" y="1318.3" text-anchor="middle" fill="#d86e6e" font-size="15" font-weight="bold" letter-spacing="3">Q IV · OMEGA</text>
<text x="281.7" y="1318.3" text-anchor="middle" fill="#5cb78a" font-size="15" font-weight="bold" letter-spacing="3">Q III · TRINITY</text>
<text x="281.7" y="281.7" text-anchor="middle" fill="#9c6ed8" font-size="15" font-weight="bold" letter-spacing="3">Q II · DICHOTOMY</text>
<text x="800" y="60" text-anchor="middle" fill="#e8c878" font-size="34" font-weight="bold" letter-spacing="6">THE AETHRYX EXPANSE</text>
<text x="800" y="92" text-anchor="middle" fill="#9c8a64" font-size="13" letter-spacing="3">28 WORLDS · 27 ORDERED + 1 DRIFT · 7 SPIRES · 4 ZONES · 1 STAR</text>
<g transform="translate(40, 130)">
<rect width="290" height="148" fill="#0d0a18" stroke="#5a4a28" stroke-width="1"/>
<text x="145" y="26" text-anchor="middle" fill="#e8c878" font-size="13" letter-spacing="2">THREE COSMOLOGICAL METRICS</text>
<text x="20" y="56" fill="#c0a868" font-size="11" font-weight="bold">FORMATION ERA</text>
<text x="20" y="72" fill="#8a7a54" font-size="10">Genesis 1—9 · Omen 10—18 · Definitive 19—27</text>
<text x="20" y="94" fill="#c0a868" font-size="11" font-weight="bold">ORBITAL SPIRE (1—7)</text>
<text x="20" y="110" fill="#8a7a54" font-size="10">ring = ⌈n / 4⌉</text>
<text x="20" y="130" fill="#c0a868" font-size="11" font-weight="bold">QUADRANT ZONE</text>
<text x="20" y="146" fill="#8a7a54" font-size="10">q = (n−1) mod 4 · Alpha · Omega · Trinity · Dichotomy</text>
</g>
<g transform="translate(1280, 130)">
<rect width="290" height="148" fill="#0d0a18" stroke="#5a4a28" stroke-width="1"/>
<text x="145" y="26" text-anchor="middle" fill="#e8c878" font-size="13" letter-spacing="2">TWO DOMINANT REALMS</text>
<circle cx="36" cy="62" r="12" fill="#6b3a8f"/>
<ellipse cx="36" cy="62" rx="22" ry="5" fill="none" stroke="#c2a878" stroke-width="1.2"/>
<text x="58" y="58" fill="#c0a868" font-size="11" font-weight="bold">9 · ZYRAXIS</text>
<text x="58" y="72" fill="#8a7a54" font-size="10">Q I Alpha · Spire 3 · double-ring · gemlords</text>
<circle cx="36" cy="108" r="12" fill="#3a8a64"/>
<circle cx="36" cy="108" r="16" fill="none" stroke="#e8c878" stroke-width="1.2"/>
<text x="58" y="104" fill="#c0a868" font-size="11" font-weight="bold">27 · VIRIDIA</text>
<text x="58" y="118" fill="#8a7a54" font-size="10">Q III Trinity · Spire 7 · saga anchor · Veil</text>
<text x="20" y="140" fill="#9c8a64" font-size="9" font-style="italic">★ marks lore-flagged worlds</text>
</g>
<g transform="translate(40, 1400)">
<rect width="290" height="120" fill="#0d0a18" stroke="#5a4a28" stroke-width="1"/>
<text x="145" y="26" text-anchor="middle" fill="#e8c878" font-size="13" letter-spacing="2">AENORIC CONVERGENCE</text>
<text x="20" y="54" fill="#8a7a54" font-size="11">Every 7—11 years the planets briefly</text>
<text x="20" y="70" fill="#8a7a54" font-size="11">align in a <tspan fill="#e8c878" font-weight="bold">+ orbital spire</tspan> — a celestial</text>
<text x="20" y="86" fill="#8a7a54" font-size="11">crucifix of light radiating from Aenor</text>
<text x="20" y="102" fill="#8a7a54" font-size="11">outward to spire 7.</text>
</g>
<g transform="translate(1280, 1400)">
<rect width="290" height="120" fill="#0d0a18" stroke="#5a4a28" stroke-width="1"/>
<text x="145" y="26" text-anchor="middle" fill="#e8c878" font-size="13" letter-spacing="2">QUADRANT COUNTS</text>
<text x="20" y="50" fill="#ffd97a" font-size="11" font-weight="bold">Q I  ALPHA      (+,+)  7 planets · N spire</text>
<text x="20" y="68" fill="#9c6ed8" font-size="11" font-weight="bold">Q II  DICHOTOMY (−,+)  6 + 1 drift · W spire</text>
<text x="20" y="86" fill="#5cb78a" font-size="11" font-weight="bold">Q III TRINITY   (−,−)  7 planets · S spire</text>
<text x="20" y="104" fill="#d86e6e" font-size="11" font-weight="bold">Q IV  OMEGA     (+,−)  7 planets · E spire</text>
</g>
<text x="800" y="1570" text-anchor="middle" fill="#e8c878" font-size="42" font-weight="bold" letter-spacing="10">THE AETHRYX EXPANSE</text>
</svg>